<svg width="150" height="150" viewBox="0 0 150 150" fill="none" xmlns="http://www.w3.org/2000/svg">
<circle cx="75" cy="75" r="72.5" stroke="#4E4040" stroke-width="5"/>
<line x1="67.0428" y1="84.1069" x2="88.1069" y2="19.9572" stroke="#4E4040" stroke-width="3" stroke-linecap="round"/>
<path d="M67 84.5L68.4455 108.447" stroke="#4E4040" stroke-width="3" stroke-linecap="round"/>
<line x1="69.1476" y1="108.884" x2="89.8838" y2="90.8524" stroke="#4E4040" stroke-width="3" stroke-linecap="round"/>
<path d="M90.0597 91.0984L111 27" stroke="#4E4040" stroke-width="3" stroke-linecap="round"/>
<path d="M88.5 20L110.869 26.6204" stroke="#4E4040" stroke-width="3" stroke-linecap="round"/>
<line x1="68.7989" y1="97.8757" x2="78.8757" y2="100.201" stroke="#4E4040" stroke-width="3" stroke-linecap="round"/>
<path d="M85.4212 30.5604C84.6261 30.3277 83.793 30.7837 83.5604 31.5788C83.3277 32.3739 83.7837 33.207 84.5788 33.4396L85.4212 30.5604ZM84.5788 33.4396L106.999 39.9996L107.841 37.1204L85.4212 30.5604L84.5788 33.4396Z" fill="#4E4040"/>
<path d="M67.8344 79.5092C67.011 79.6007 66.4177 80.3423 66.5092 81.1656C66.6007 81.989 67.3423 82.5823 68.1656 82.4908L67.8344 79.5092ZM68.1656 82.4908L77.1656 81.4908L76.8344 78.5092L67.8344 79.5092L68.1656 82.4908Z" fill="#4E4040"/>
<path d="M86.2206 84.1281C85.7391 83.454 84.8023 83.2979 84.1281 83.7794C83.454 84.2609 83.2979 85.1977 83.7794 85.8719L86.2206 84.1281ZM91.2206 91.1281L86.2206 84.1281L83.7794 85.8719L88.7794 92.8719L91.2206 91.1281Z" fill="#4E4040"/>
<path d="M78 81L80.8006 85.4222" stroke="#4E4040" stroke-width="3" stroke-linecap="round"/>
<path d="M81 85C80.2309 85.3077 79.8567 86.1806 80.1644 86.9498C80.4721 87.719 81.345 88.0931 82.1142 87.7854L81 85ZM86 83L81 85L82.1142 87.7854L87.1142 85.7854L86 83Z" fill="#4E4040"/>
<path d="M75.5677 79.5544C75.3216 80.3454 75.7634 81.1862 76.5544 81.4323C77.3454 81.6784 78.1862 81.2366 78.4323 80.4456L75.5677 79.5544ZM78.4323 80.4456L92.4323 35.4456L89.5677 34.5544L75.5677 79.5544L78.4323 80.4456Z" fill="#4E4040"/>
<path d="M83.577 84.5257C83.315 85.3116 83.7397 86.1611 84.5257 86.423C85.3116 86.685 86.1611 86.2603 86.423 85.4743L83.577 84.5257ZM86.423 85.4743L102.423 37.4743L99.577 36.5257L83.577 84.5257L86.423 85.4743Z" fill="#4E4040"/>
<line x1="56.423" y1="118.526" x2="61.423" y2="133.526" stroke="#4E4040" stroke-width="3"/>
<line x1="49.0854" y1="124.811" x2="62.0854" y2="114.811" stroke="#4E4040" stroke-width="3"/>
<path d="M74.274 118.396C75.0855 120.778 75.1733 123.082 74.7333 124.852C74.2889 126.64 73.3778 127.681 72.3412 128.034C71.3046 128.387 69.9476 128.118 68.5041 126.973C67.0753 125.84 65.7388 123.962 64.9273 121.579C64.1158 119.197 64.028 116.893 64.4679 115.124C64.9124 113.335 65.8235 112.295 66.8601 111.941C67.8966 111.588 69.2537 111.857 70.6972 113.002C72.126 114.135 73.4625 116.013 74.274 118.396Z" stroke="#4E4040" stroke-width="3"/>
</svg>
